<svg xmlns="http://www.w3.org/2000/svg" xmlns:xlink="http://www.w3.org/1999/xlink" width="230" zoomAndPan="magnify" viewBox="73 90 230 200" height="200" preserveAspectRatio="xMidYMid meet" version="1.0"><defs><g/><clipPath id="0c1ff9c8a7"><path d="M 165 199 L 210 199 L 210 212.40625 L 165 212.40625 Z M 165 199 " clip-rule="nonzero"/></clipPath><clipPath id="a6bc2d004f"><path d="M 115.667969 168 L 142 168 L 142 172 L 115.667969 172 Z M 115.667969 168 " clip-rule="nonzero"/></clipPath><clipPath id="235ae6cb46"><path d="M 233 168 L 259.667969 168 L 259.667969 172 L 233 172 Z M 233 168 " clip-rule="nonzero"/></clipPath><clipPath id="abbe0ccb26"><path d="M 186 98.40625 L 190 98.40625 L 190 125 L 186 125 Z M 186 98.40625 " clip-rule="nonzero"/></clipPath><clipPath id="4b7d2b460d"><rect x="0" width="221" y="0" height="29"/></clipPath><clipPath id="f17f1faaf8"><rect x="0" width="113" y="0" height="28"/></clipPath></defs><path fill="#99dde7" d="M 222.871094 174.398438 C 220.789062 176.828125 216.175781 181.441406 211.136719 181.441406 C 206.097656 181.441406 201.484375 176.828125 199.402344 174.398438 C 197.316406 176.828125 192.703125 181.441406 187.667969 181.441406 C 182.628906 181.441406 178.015625 176.828125 175.933594 174.398438 C 173.847656 176.828125 169.234375 181.441406 164.195312 181.441406 C 159.160156 181.441406 154.546875 176.828125 152.460938 174.398438 C 151.179688 175.894531 148.933594 178.222656 146.222656 179.785156 C 146.804688 182.230469 147.597656 184.59375 148.582031 186.855469 C 150.214844 185.253906 151.28125 183.796875 151.304688 183.765625 L 152.464844 182.160156 L 153.621094 183.765625 C 153.675781 183.835938 158.964844 191.074219 164.195312 191.074219 C 169.429688 191.074219 174.71875 183.835938 174.773438 183.765625 L 175.933594 182.160156 L 177.089844 183.765625 C 177.144531 183.835938 182.4375 191.074219 187.667969 191.074219 C 192.898438 191.074219 198.191406 183.835938 198.242188 183.765625 L 199.402344 182.160156 L 200.558594 183.765625 C 200.613281 183.835938 205.90625 191.074219 211.136719 191.074219 C 215.492188 191.074219 220.246094 185.796875 221.714844 183.765625 L 222.871094 182.15625 L 224.03125 183.765625 C 224.054688 183.796875 225.121094 185.253906 226.753906 186.855469 C 227.738281 184.59375 228.53125 182.230469 229.113281 179.785156 C 226.398438 178.222656 224.15625 175.894531 222.871094 174.398438 " fill-opacity="1" fill-rule="nonzero"/><path fill="#6ecfe2" d="M 225.464844 189.550781 C 224.402344 188.582031 223.515625 187.625 222.871094 186.871094 C 220.789062 189.304688 216.175781 193.917969 211.136719 193.917969 C 206.097656 193.917969 201.484375 189.304688 199.402344 186.871094 C 197.316406 189.304688 192.703125 193.917969 187.667969 193.917969 C 182.628906 193.917969 178.015625 189.304688 175.933594 186.871094 C 173.847656 189.304688 169.234375 193.917969 164.195312 193.917969 C 159.160156 193.917969 154.546875 189.304688 152.460938 186.871094 C 151.820312 187.625 150.933594 188.582031 149.871094 189.550781 C 152.390625 194.375 155.816406 198.660156 159.921875 202.175781 C 161.277344 202.988281 162.738281 203.550781 164.195312 203.550781 C 169.429688 203.550781 174.71875 196.3125 174.773438 196.242188 L 175.933594 194.632812 L 177.089844 196.242188 C 177.144531 196.3125 182.4375 203.550781 187.667969 203.550781 C 192.898438 203.550781 198.191406 196.3125 198.242188 196.242188 L 199.402344 194.632812 L 200.558594 196.242188 C 200.613281 196.3125 205.90625 203.550781 211.136719 203.550781 C 212.59375 203.550781 214.101562 202.957031 215.507812 202.09375 C 219.574219 198.59375 222.964844 194.339844 225.464844 189.550781 " fill-opacity="1" fill-rule="nonzero"/><g clip-path="url(#0c1ff9c8a7)"><path fill="#40c0d8" d="M 199.402344 199.347656 C 197.316406 201.78125 192.703125 206.394531 187.667969 206.394531 C 182.628906 206.394531 178.015625 201.78125 175.933594 199.347656 C 174.042969 201.554688 170.074219 205.550781 165.59375 206.277344 C 172.03125 210.171875 179.585938 212.414062 187.667969 212.414062 C 195.75 212.414062 203.304688 210.171875 209.742188 206.277344 C 205.261719 205.550781 201.289062 201.554688 199.402344 199.347656 " fill-opacity="1" fill-rule="nonzero"/></g><path fill="#f68c11" d="M 206.414062 161.992188 L 229.488281 161.992188 C 228.320312 155.90625 225.847656 150.28125 222.367188 145.421875 L 199.328125 143.125 L 220.601562 143.125 C 212.792969 133.648438 200.9375 127.601562 187.667969 127.601562 C 169.363281 127.601562 153.753906 139.105469 147.734375 155.25 L 171.054688 155.25 L 146.921875 157.652344 C 145.730469 161.5625 145.085938 165.710938 145.085938 170.007812 C 145.085938 172.328125 145.273438 174.601562 145.632812 176.820312 C 148.828125 174.671875 151.269531 171.335938 151.304688 171.289062 L 152.464844 169.683594 L 153.621094 171.289062 C 153.675781 171.363281 158.964844 178.601562 164.195312 178.601562 C 169.429688 178.601562 174.71875 171.363281 174.773438 171.289062 L 175.933594 169.683594 L 177.089844 171.289062 C 177.144531 171.363281 182.4375 178.601562 187.667969 178.601562 C 192.898438 178.601562 198.191406 171.363281 198.242188 171.289062 L 199.402344 169.683594 L 200.558594 171.289062 C 200.613281 171.363281 205.90625 178.601562 211.136719 178.601562 C 215.492188 178.601562 220.246094 173.320312 221.714844 171.289062 L 222.871094 169.679688 L 224.03125 171.289062 C 224.066406 171.335938 226.503906 174.671875 229.703125 176.820312 C 230.0625 174.605469 230.25 172.328125 230.25 170.007812 C 230.25 168.082031 230.121094 166.1875 229.871094 164.328125 L 206.414062 161.992188 " fill-opacity="1" fill-rule="nonzero"/><path fill="#f68c11" d="M 147.449219 145.195312 L 125.429688 134.097656 L 145.898438 147.777344 L 145.9375 147.800781 C 146.167969 147.933594 146.421875 148 146.679688 148 C 146.8125 148 146.941406 147.984375 147.070312 147.949219 C 147.457031 147.847656 147.78125 147.597656 147.980469 147.261719 L 148 147.226562 C 148.191406 146.882812 148.246094 146.488281 148.148438 146.105469 C 148.046875 145.71875 147.796875 145.394531 147.449219 145.195312 " fill-opacity="1" fill-rule="nonzero"/><path fill="#f68c11" d="M 151.554688 108.085938 L 162.683594 129.972656 L 162.703125 130.007812 C 162.902344 130.351562 163.230469 130.597656 163.617188 130.699219 C 163.742188 130.734375 163.871094 130.75 164 130.75 C 164.261719 130.75 164.519531 130.679688 164.746094 130.550781 L 164.765625 130.539062 C 165.484375 130.125 165.730469 129.210938 165.320312 128.5 L 151.554688 108.085938 " fill-opacity="1" fill-rule="nonzero"/><path fill="#f68c11" d="M 227.925781 145.175781 L 227.886719 145.195312 C 227.539062 145.394531 227.292969 145.71875 227.191406 146.105469 C 227.089844 146.492188 227.144531 146.890625 227.34375 147.234375 L 227.355469 147.257812 C 227.554688 147.597656 227.875 147.84375 228.257812 147.945312 C 228.390625 147.984375 228.523438 148 228.65625 148 C 228.914062 148 229.167969 147.933594 229.398438 147.800781 L 249.992188 134.226562 L 227.925781 145.175781 " fill-opacity="1" fill-rule="nonzero"/><g clip-path="url(#a6bc2d004f)"><path fill="#f68c11" d="M 141.839844 170.046875 C 141.839844 169.648438 141.683594 169.273438 141.402344 168.992188 C 141.121094 168.707031 140.746094 168.550781 140.34375 168.550781 L 115.722656 169.902344 L 140.296875 171.558594 L 140.34375 171.5625 C 140.746094 171.5625 141.121094 171.402344 141.402344 171.121094 C 141.683594 170.835938 141.839844 170.460938 141.839844 170.0625 L 141.167969 170.066406 L 141.839844 170.046875 " fill-opacity="1" fill-rule="nonzero"/></g><g clip-path="url(#235ae6cb46)"><path fill="#f68c11" d="M 235.03125 168.550781 L 234.996094 168.550781 C 234.589844 168.550781 234.214844 168.707031 233.933594 168.992188 C 233.652344 169.273438 233.5 169.648438 233.5 170.046875 L 234.171875 170.046875 L 233.5 170.0625 C 233.5 170.460938 233.652344 170.835938 233.933594 171.121094 C 234.214844 171.402344 234.589844 171.5625 234.996094 171.5625 L 235.015625 171.5625 L 259.613281 169.902344 L 235.03125 168.550781 " fill-opacity="1" fill-rule="nonzero"/></g><g clip-path="url(#abbe0ccb26)"><path fill="#f68c11" d="M 186.15625 122.894531 L 186.15625 122.929688 C 186.15625 123.332031 186.3125 123.703125 186.601562 123.984375 C 186.882812 124.265625 187.257812 124.417969 187.660156 124.417969 L 187.660156 123.75 L 187.675781 124.417969 C 188.078125 124.417969 188.453125 124.265625 188.738281 123.984375 C 189.023438 123.703125 189.179688 123.332031 189.179688 122.929688 L 187.511719 98.414062 L 186.15625 122.894531 " fill-opacity="1" fill-rule="nonzero"/></g><path fill="#f68c11" d="M 210.015625 128.5 C 209.605469 129.210938 209.851562 130.125 210.570312 130.539062 L 210.585938 130.546875 C 210.816406 130.679688 211.074219 130.75 211.339844 130.75 C 211.464844 130.75 211.59375 130.734375 211.71875 130.699219 C 212.105469 130.597656 212.433594 130.351562 212.632812 130.007812 L 223.785156 108.085938 L 210.039062 128.460938 L 210.015625 128.5 " fill-opacity="1" fill-rule="nonzero"/><g transform="matrix(1, 0, 0, 1, 78, 222)"><g clip-path="url(#4b7d2b460d)"><g fill="#313131" fill-opacity="1"><g transform="translate(1.097604, 22.140654)"><g><path d="M 8.671875 0.234375 C 7.117188 0.234375 5.785156 -0.09375 4.671875 -0.75 C 3.554688 -1.40625 2.707031 -2.351562 2.125 -3.59375 C 1.539062 -4.832031 1.25 -6.304688 1.25 -8.015625 C 1.25 -9.773438 1.554688 -11.304688 2.171875 -12.609375 C 2.785156 -13.921875 3.675781 -14.925781 4.84375 -15.625 C 6.007812 -16.320312 7.382812 -16.671875 8.96875 -16.671875 C 10.5 -16.671875 11.820312 -16.34375 12.9375 -15.6875 C 14.050781 -15.03125 14.898438 -14.082031 15.484375 -12.84375 C 16.078125 -11.601562 16.375 -10.132812 16.375 -8.4375 C 16.375 -6.664062 16.054688 -5.128906 15.421875 -3.828125 C 14.796875 -2.523438 13.90625 -1.519531 12.75 -0.8125 C 11.59375 -0.113281 10.234375 0.234375 8.671875 0.234375 Z M 8.6875 -2.890625 C 11.238281 -2.890625 12.515625 -4.726562 12.515625 -8.40625 C 12.515625 -10.15625 12.21875 -11.445312 11.625 -12.28125 C 11.03125 -13.125 10.128906 -13.546875 8.921875 -13.546875 C 6.359375 -13.546875 5.078125 -11.71875 5.078125 -8.0625 C 5.078125 -6.289062 5.375 -4.984375 5.96875 -4.140625 C 6.5625 -3.304688 7.46875 -2.890625 8.6875 -2.890625 Z M 8.6875 -2.890625 "/></g></g></g><g fill="#313131" fill-opacity="1"><g transform="translate(20.909141, 22.140654)"><g><path d="M 12.609375 -5.5625 C 13.066406 -5.5625 13.457031 -5.429688 13.78125 -5.171875 C 14.113281 -4.921875 14.28125 -4.59375 14.28125 -4.1875 C 14.28125 -3.976562 14.226562 -3.71875 14.125 -3.40625 C 14.019531 -3.09375 13.890625 -2.8125 13.734375 -2.5625 C 13.171875 -1.601562 12.457031 -0.894531 11.59375 -0.4375 C 10.738281 0.0078125 9.675781 0.234375 8.40625 0.234375 C 6.945312 0.234375 5.675781 -0.113281 4.59375 -0.8125 C 3.519531 -1.519531 2.695312 -2.523438 2.125 -3.828125 C 1.550781 -5.128906 1.265625 -6.640625 1.265625 -8.359375 C 1.265625 -10.066406 1.546875 -11.546875 2.109375 -12.796875 C 2.671875 -14.046875 3.488281 -15.003906 4.5625 -15.671875 C 5.632812 -16.335938 6.925781 -16.671875 8.4375 -16.671875 C 9.53125 -16.671875 10.519531 -16.492188 11.40625 -16.140625 C 12.300781 -15.785156 13.003906 -15.300781 13.515625 -14.6875 C 14.023438 -14.070312 14.28125 -13.378906 14.28125 -12.609375 C 14.28125 -11.921875 14.070312 -11.359375 13.65625 -10.921875 C 13.238281 -10.484375 12.703125 -10.265625 12.046875 -10.265625 C 11.367188 -10.265625 10.828125 -10.445312 10.421875 -10.8125 C 10.015625 -11.175781 9.8125 -11.664062 9.8125 -12.28125 C 9.8125 -12.613281 9.875 -12.925781 10 -13.21875 C 9.65625 -13.4375 9.15625 -13.546875 8.5 -13.546875 C 7.289062 -13.546875 6.421875 -13.132812 5.890625 -12.3125 C 5.359375 -11.488281 5.09375 -10.195312 5.09375 -8.4375 C 5.09375 -6.582031 5.378906 -5.191406 5.953125 -4.265625 C 6.535156 -3.347656 7.441406 -2.890625 8.671875 -2.890625 C 9.242188 -2.890625 9.722656 -3.015625 10.109375 -3.265625 C 10.503906 -3.523438 10.84375 -3.929688 11.125 -4.484375 C 11.332031 -4.910156 11.539062 -5.195312 11.75 -5.34375 C 11.96875 -5.488281 12.253906 -5.5625 12.609375 -5.5625 Z M 12.609375 -5.5625 "/></g></g></g><g fill="#313131" fill-opacity="1"><g transform="translate(38.537706, 22.140654)"><g><path d="M 13.03125 -5.75 C 13.394531 -5.75 13.65625 -5.644531 13.8125 -5.4375 C 13.976562 -5.238281 14.0625 -4.96875 14.0625 -4.625 L 14.0625 -1.34375 C 14.0625 -0.945312 13.929688 -0.625 13.671875 -0.375 C 13.421875 -0.125 13.09375 0 12.6875 0 L 2.328125 0 C 1.984375 0 1.707031 -0.0820312 1.5 -0.25 C 1.300781 -0.414062 1.203125 -0.675781 1.203125 -1.03125 L 1.203125 -2.0625 C 1.203125 -2.425781 1.300781 -2.691406 1.5 -2.859375 C 1.707031 -3.035156 1.984375 -3.125 2.328125 -3.125 L 2.671875 -3.125 L 2.671875 -13.3125 L 2.328125 -13.3125 C 1.984375 -13.3125 1.707031 -13.394531 1.5 -13.5625 C 1.300781 -13.738281 1.203125 -14.007812 1.203125 -14.375 L 1.203125 -15.40625 C 1.203125 -15.769531 1.300781 -16.03125 1.5 -16.1875 C 1.707031 -16.351562 1.984375 -16.4375 2.328125 -16.4375 L 12.546875 -16.4375 C 12.953125 -16.4375 13.28125 -16.304688 13.53125 -16.046875 C 13.789062 -15.796875 13.921875 -15.460938 13.921875 -15.046875 L 13.921875 -12.1875 C 13.921875 -11.84375 13.835938 -11.566406 13.671875 -11.359375 C 13.515625 -11.160156 13.253906 -11.0625 12.890625 -11.0625 L 11.859375 -11.0625 C 11.171875 -11.0625 10.828125 -11.4375 10.828125 -12.1875 L 10.828125 -13.3125 L 6.4375 -13.3125 L 6.4375 -10.046875 L 9.859375 -10.046875 C 10.191406 -10.046875 10.46875 -9.9375 10.6875 -9.71875 C 10.90625 -9.5 11.015625 -9.226562 11.015625 -8.90625 L 11.015625 -8.109375 C 11.015625 -7.773438 10.90625 -7.5 10.6875 -7.28125 C 10.46875 -7.0625 10.191406 -6.953125 9.859375 -6.953125 L 6.4375 -6.953125 L 6.4375 -3.125 L 10.9375 -3.125 L 10.9375 -4.625 C 10.9375 -4.96875 11.019531 -5.238281 11.1875 -5.4375 C 11.363281 -5.644531 11.632812 -5.75 12 -5.75 Z M 13.03125 -5.75 "/></g></g></g><g fill="#313131" fill-opacity="1"><g transform="translate(56.330569, 22.140654)"><g><path d="M 15.640625 -3.125 C 15.984375 -3.125 16.253906 -3.035156 16.453125 -2.859375 C 16.660156 -2.691406 16.765625 -2.425781 16.765625 -2.0625 L 16.765625 -1.03125 C 16.765625 -0.675781 16.660156 -0.414062 16.453125 -0.25 C 16.253906 -0.0820312 15.984375 0 15.640625 0 L 11.078125 0 C 10.734375 0 10.457031 -0.0820312 10.25 -0.25 C 10.050781 -0.414062 9.953125 -0.675781 9.953125 -1.03125 L 9.953125 -2.0625 C 9.953125 -2.425781 10.050781 -2.691406 10.25 -2.859375 C 10.457031 -3.035156 10.734375 -3.125 11.078125 -3.125 L 11.4375 -3.125 L 10.78125 -5.046875 L 6.0625 -5.046875 L 5.40625 -3.125 L 5.78125 -3.125 C 6.101562 -3.125 6.363281 -3.035156 6.5625 -2.859375 C 6.769531 -2.691406 6.875 -2.425781 6.875 -2.0625 L 6.875 -1.03125 C 6.875 -0.675781 6.769531 -0.414062 6.5625 -0.25 C 6.363281 -0.0820312 6.101562 0 5.78125 0 L 1.828125 0 C 1.503906 0 1.234375 -0.0820312 1.015625 -0.25 C 0.804688 -0.414062 0.703125 -0.675781 0.703125 -1.03125 L 0.703125 -2.0625 C 0.703125 -2.425781 0.804688 -2.691406 1.015625 -2.859375 C 1.234375 -3.035156 1.503906 -3.125 1.828125 -3.125 L 2.1875 -3.125 L 6.671875 -15.609375 C 6.742188 -15.867188 6.882812 -16.070312 7.09375 -16.21875 C 7.3125 -16.363281 7.554688 -16.4375 7.828125 -16.4375 L 9.65625 -16.4375 C 9.914062 -16.4375 10.148438 -16.363281 10.359375 -16.21875 C 10.578125 -16.070312 10.722656 -15.867188 10.796875 -15.609375 L 15.28125 -3.125 Z M 9.703125 -8.171875 L 8.4375 -11.9375 L 7.140625 -8.171875 Z M 9.703125 -8.171875 "/></g></g></g><g fill="#313131" fill-opacity="1"><g transform="translate(76.024735, 22.140654)"><g><path d="M 15.828125 -16.4375 C 16.160156 -16.4375 16.425781 -16.351562 16.625 -16.1875 C 16.832031 -16.03125 16.9375 -15.769531 16.9375 -15.40625 L 16.9375 -14.375 C 16.9375 -14.007812 16.832031 -13.738281 16.625 -13.5625 C 16.425781 -13.394531 16.160156 -13.3125 15.828125 -13.3125 L 15.46875 -13.3125 L 15.46875 -1.171875 C 15.46875 -0.828125 15.351562 -0.546875 15.125 -0.328125 C 14.90625 -0.109375 14.628906 0 14.296875 0 L 12.546875 0 C 12.367188 0 12.207031 -0.0351562 12.0625 -0.109375 C 11.914062 -0.191406 11.789062 -0.304688 11.6875 -0.453125 L 5.828125 -9.953125 L 5.828125 -3.125 L 6.203125 -3.125 C 6.523438 -3.125 6.785156 -3.035156 6.984375 -2.859375 C 7.191406 -2.691406 7.296875 -2.425781 7.296875 -2.0625 L 7.296875 -1.03125 C 7.296875 -0.675781 7.191406 -0.414062 6.984375 -0.25 C 6.785156 -0.0820312 6.523438 0 6.203125 0 L 2.328125 0 C 1.984375 0 1.707031 -0.0820312 1.5 -0.25 C 1.300781 -0.414062 1.203125 -0.675781 1.203125 -1.03125 L 1.203125 -2.0625 C 1.203125 -2.425781 1.300781 -2.691406 1.5 -2.859375 C 1.707031 -3.035156 1.984375 -3.125 2.328125 -3.125 L 2.671875 -3.125 L 2.671875 -13.3125 L 2.328125 -13.3125 C 1.984375 -13.3125 1.707031 -13.394531 1.5 -13.5625 C 1.300781 -13.738281 1.203125 -14.007812 1.203125 -14.375 L 1.203125 -15.40625 C 1.203125 -15.769531 1.300781 -16.03125 1.5 -16.1875 C 1.707031 -16.351562 1.984375 -16.4375 2.328125 -16.4375 L 5.59375 -16.4375 C 5.945312 -16.4375 6.226562 -16.289062 6.4375 -16 L 12.3125 -6.5 L 12.3125 -13.3125 L 11.953125 -13.3125 C 11.617188 -13.3125 11.347656 -13.394531 11.140625 -13.5625 C 10.929688 -13.738281 10.828125 -14.007812 10.828125 -14.375 L 10.828125 -15.40625 C 10.828125 -15.769531 10.929688 -16.03125 11.140625 -16.1875 C 11.347656 -16.351562 11.617188 -16.4375 11.953125 -16.4375 Z M 15.828125 -16.4375 "/></g></g></g><g fill="#313131" fill-opacity="1"><g transform="translate(96.094472, 22.140654)"><g/></g></g><g fill="#313131" fill-opacity="1"><g transform="translate(104.991135, 22.140654)"><g><path d="M 8.671875 0.234375 C 7.117188 0.234375 5.785156 -0.09375 4.671875 -0.75 C 3.554688 -1.40625 2.707031 -2.351562 2.125 -3.59375 C 1.539062 -4.832031 1.25 -6.304688 1.25 -8.015625 C 1.25 -9.773438 1.554688 -11.304688 2.171875 -12.609375 C 2.785156 -13.921875 3.675781 -14.925781 4.84375 -15.625 C 6.007812 -16.320312 7.382812 -16.671875 8.96875 -16.671875 C 10.5 -16.671875 11.820312 -16.34375 12.9375 -15.6875 C 14.050781 -15.03125 14.898438 -14.082031 15.484375 -12.84375 C 16.078125 -11.601562 16.375 -10.132812 16.375 -8.4375 C 16.375 -6.664062 16.054688 -5.128906 15.421875 -3.828125 C 14.796875 -2.523438 13.90625 -1.519531 12.75 -0.8125 C 11.59375 -0.113281 10.234375 0.234375 8.671875 0.234375 Z M 8.6875 -2.890625 C 11.238281 -2.890625 12.515625 -4.726562 12.515625 -8.40625 C 12.515625 -10.15625 12.21875 -11.445312 11.625 -12.28125 C 11.03125 -13.125 10.128906 -13.546875 8.921875 -13.546875 C 6.359375 -13.546875 5.078125 -11.71875 5.078125 -8.0625 C 5.078125 -6.289062 5.375 -4.984375 5.96875 -4.140625 C 6.5625 -3.304688 7.46875 -2.890625 8.6875 -2.890625 Z M 8.6875 -2.890625 "/></g></g></g><g fill="#313131" fill-opacity="1"><g transform="translate(124.685288, 22.140654)"><g><path d="M 15.21875 -3.125 C 15.5625 -3.125 15.832031 -3.035156 16.03125 -2.859375 C 16.238281 -2.691406 16.34375 -2.425781 16.34375 -2.0625 L 16.34375 -1.03125 C 16.34375 -0.675781 16.238281 -0.414062 16.03125 -0.25 C 15.832031 -0.0820312 15.5625 0 15.21875 0 L 12.265625 0 C 12.078125 0 11.898438 -0.046875 11.734375 -0.140625 C 11.566406 -0.234375 11.4375 -0.367188 11.34375 -0.546875 L 9.1875 -4.515625 C 8.90625 -5.023438 8.660156 -5.40625 8.453125 -5.65625 C 8.253906 -5.90625 8.035156 -6.078125 7.796875 -6.171875 C 7.554688 -6.265625 7.242188 -6.3125 6.859375 -6.3125 L 6.4375 -6.3125 L 6.4375 -3.125 L 6.78125 -3.125 C 7.113281 -3.125 7.378906 -3.035156 7.578125 -2.859375 C 7.785156 -2.691406 7.890625 -2.425781 7.890625 -2.0625 L 7.890625 -1.03125 C 7.890625 -0.675781 7.785156 -0.414062 7.578125 -0.25 C 7.378906 -0.0820312 7.113281 0 6.78125 0 L 2.328125 0 C 1.984375 0 1.707031 -0.0820312 1.5 -0.25 C 1.300781 -0.414062 1.203125 -0.675781 1.203125 -1.03125 L 1.203125 -2.0625 C 1.203125 -2.425781 1.300781 -2.691406 1.5 -2.859375 C 1.707031 -3.035156 1.984375 -3.125 2.328125 -3.125 L 2.671875 -3.125 L 2.671875 -13.3125 L 2.328125 -13.3125 C 1.984375 -13.3125 1.707031 -13.394531 1.5 -13.5625 C 1.300781 -13.738281 1.203125 -14.007812 1.203125 -14.375 L 1.203125 -15.40625 C 1.203125 -15.769531 1.300781 -16.03125 1.5 -16.1875 C 1.707031 -16.351562 1.984375 -16.4375 2.328125 -16.4375 L 8.25 -16.4375 C 10.25 -16.4375 11.765625 -16.023438 12.796875 -15.203125 C 13.828125 -14.378906 14.34375 -13.175781 14.34375 -11.59375 C 14.34375 -10.5625 14.070312 -9.675781 13.53125 -8.9375 C 13 -8.207031 12.238281 -7.671875 11.25 -7.328125 C 11.53125 -7.210938 11.789062 -7.019531 12.03125 -6.75 C 12.28125 -6.488281 12.53125 -6.125 12.78125 -5.65625 L 14.140625 -3.125 Z M 7.84375 -9.421875 C 8.78125 -9.421875 9.457031 -9.585938 9.875 -9.921875 C 10.289062 -10.253906 10.5 -10.789062 10.5 -11.53125 C 10.5 -12.125 10.296875 -12.566406 9.890625 -12.859375 C 9.492188 -13.160156 8.890625 -13.3125 8.078125 -13.3125 L 6.4375 -13.3125 L 6.4375 -9.421875 Z M 7.84375 -9.421875 "/></g></g></g><g fill="#313131" fill-opacity="1"><g transform="translate(144.168242, 22.140654)"><g><path d="M 15.640625 -3.125 C 15.984375 -3.125 16.253906 -3.035156 16.453125 -2.859375 C 16.660156 -2.691406 16.765625 -2.425781 16.765625 -2.0625 L 16.765625 -1.03125 C 16.765625 -0.675781 16.660156 -0.414062 16.453125 -0.25 C 16.253906 -0.0820312 15.984375 0 15.640625 0 L 11.078125 0 C 10.734375 0 10.457031 -0.0820312 10.25 -0.25 C 10.050781 -0.414062 9.953125 -0.675781 9.953125 -1.03125 L 9.953125 -2.0625 C 9.953125 -2.425781 10.050781 -2.691406 10.25 -2.859375 C 10.457031 -3.035156 10.734375 -3.125 11.078125 -3.125 L 11.4375 -3.125 L 10.78125 -5.046875 L 6.0625 -5.046875 L 5.40625 -3.125 L 5.78125 -3.125 C 6.101562 -3.125 6.363281 -3.035156 6.5625 -2.859375 C 6.769531 -2.691406 6.875 -2.425781 6.875 -2.0625 L 6.875 -1.03125 C 6.875 -0.675781 6.769531 -0.414062 6.5625 -0.25 C 6.363281 -0.0820312 6.101562 0 5.78125 0 L 1.828125 0 C 1.503906 0 1.234375 -0.0820312 1.015625 -0.25 C 0.804688 -0.414062 0.703125 -0.675781 0.703125 -1.03125 L 0.703125 -2.0625 C 0.703125 -2.425781 0.804688 -2.691406 1.015625 -2.859375 C 1.234375 -3.035156 1.503906 -3.125 1.828125 -3.125 L 2.1875 -3.125 L 6.671875 -15.609375 C 6.742188 -15.867188 6.882812 -16.070312 7.09375 -16.21875 C 7.3125 -16.363281 7.554688 -16.4375 7.828125 -16.4375 L 9.65625 -16.4375 C 9.914062 -16.4375 10.148438 -16.363281 10.359375 -16.21875 C 10.578125 -16.070312 10.722656 -15.867188 10.796875 -15.609375 L 15.28125 -3.125 Z M 9.703125 -8.171875 L 8.4375 -11.9375 L 7.140625 -8.171875 Z M 9.703125 -8.171875 "/></g></g></g><g fill="#313131" fill-opacity="1"><g transform="translate(163.862407, 22.140654)"><g><path d="M 15.828125 -16.4375 C 16.160156 -16.4375 16.425781 -16.351562 16.625 -16.1875 C 16.832031 -16.03125 16.9375 -15.769531 16.9375 -15.40625 L 16.9375 -14.375 C 16.9375 -14.007812 16.832031 -13.738281 16.625 -13.5625 C 16.425781 -13.394531 16.160156 -13.3125 15.828125 -13.3125 L 15.46875 -13.3125 L 15.46875 -1.171875 C 15.46875 -0.828125 15.351562 -0.546875 15.125 -0.328125 C 14.90625 -0.109375 14.628906 0 14.296875 0 L 12.546875 0 C 12.367188 0 12.207031 -0.0351562 12.0625 -0.109375 C 11.914062 -0.191406 11.789062 -0.304688 11.6875 -0.453125 L 5.828125 -9.953125 L 5.828125 -3.125 L 6.203125 -3.125 C 6.523438 -3.125 6.785156 -3.035156 6.984375 -2.859375 C 7.191406 -2.691406 7.296875 -2.425781 7.296875 -2.0625 L 7.296875 -1.03125 C 7.296875 -0.675781 7.191406 -0.414062 6.984375 -0.25 C 6.785156 -0.0820312 6.523438 0 6.203125 0 L 2.328125 0 C 1.984375 0 1.707031 -0.0820312 1.5 -0.25 C 1.300781 -0.414062 1.203125 -0.675781 1.203125 -1.03125 L 1.203125 -2.0625 C 1.203125 -2.425781 1.300781 -2.691406 1.5 -2.859375 C 1.707031 -3.035156 1.984375 -3.125 2.328125 -3.125 L 2.671875 -3.125 L 2.671875 -13.3125 L 2.328125 -13.3125 C 1.984375 -13.3125 1.707031 -13.394531 1.5 -13.5625 C 1.300781 -13.738281 1.203125 -14.007812 1.203125 -14.375 L 1.203125 -15.40625 C 1.203125 -15.769531 1.300781 -16.03125 1.5 -16.1875 C 1.707031 -16.351562 1.984375 -16.4375 2.328125 -16.4375 L 5.59375 -16.4375 C 5.945312 -16.4375 6.226562 -16.289062 6.4375 -16 L 12.3125 -6.5 L 12.3125 -13.3125 L 11.953125 -13.3125 C 11.617188 -13.3125 11.347656 -13.394531 11.140625 -13.5625 C 10.929688 -13.738281 10.828125 -14.007812 10.828125 -14.375 L 10.828125 -15.40625 C 10.828125 -15.769531 10.929688 -16.03125 11.140625 -16.1875 C 11.347656 -16.351562 11.617188 -16.4375 11.953125 -16.4375 Z M 15.828125 -16.4375 "/></g></g></g><g fill="#313131" fill-opacity="1"><g transform="translate(183.814762, 22.140654)"><g><path d="M 13.578125 -8.71875 C 13.898438 -8.71875 14.175781 -8.601562 14.40625 -8.375 C 14.632812 -8.144531 14.75 -7.863281 14.75 -7.53125 L 14.75 -1.03125 C 14.75 -0.707031 14.632812 -0.429688 14.40625 -0.203125 C 14.175781 0.0234375 13.898438 0.140625 13.578125 0.140625 L 13.109375 0.140625 C 12.640625 0.140625 12.300781 -0.117188 12.09375 -0.640625 L 11.53125 -2.15625 C 11.21875 -1.4375 10.71875 -0.859375 10.03125 -0.421875 C 9.351562 0.015625 8.597656 0.234375 7.765625 0.234375 C 6.441406 0.234375 5.289062 -0.109375 4.3125 -0.796875 C 3.34375 -1.484375 2.597656 -2.472656 2.078125 -3.765625 C 1.554688 -5.054688 1.296875 -6.585938 1.296875 -8.359375 C 1.296875 -10.078125 1.578125 -11.5625 2.140625 -12.8125 C 2.703125 -14.070312 3.519531 -15.03125 4.59375 -15.6875 C 5.675781 -16.34375 6.960938 -16.671875 8.453125 -16.671875 C 9.546875 -16.671875 10.539062 -16.492188 11.4375 -16.140625 C 12.332031 -15.785156 13.03125 -15.300781 13.53125 -14.6875 C 14.039062 -14.070312 14.296875 -13.378906 14.296875 -12.609375 C 14.296875 -11.921875 14.085938 -11.359375 13.671875 -10.921875 C 13.265625 -10.484375 12.734375 -10.265625 12.078125 -10.265625 C 11.398438 -10.265625 10.859375 -10.445312 10.453125 -10.8125 C 10.054688 -11.175781 9.859375 -11.664062 9.859375 -12.28125 C 9.859375 -12.59375 9.921875 -12.898438 10.046875 -13.203125 C 9.671875 -13.429688 9.164062 -13.546875 8.53125 -13.546875 C 7.332031 -13.546875 6.460938 -13.140625 5.921875 -12.328125 C 5.390625 -11.523438 5.125 -10.226562 5.125 -8.4375 C 5.125 -6.570312 5.390625 -5.179688 5.921875 -4.265625 C 6.460938 -3.347656 7.285156 -2.890625 8.390625 -2.890625 C 9.117188 -2.890625 9.734375 -3.125 10.234375 -3.59375 C 10.734375 -4.0625 10.984375 -4.648438 10.984375 -5.359375 L 10.984375 -5.59375 L 8.625 -5.59375 C 8.28125 -5.59375 7.992188 -5.703125 7.765625 -5.921875 C 7.546875 -6.140625 7.4375 -6.410156 7.4375 -6.734375 L 7.4375 -7.53125 C 7.4375 -7.863281 7.546875 -8.144531 7.765625 -8.375 C 7.992188 -8.601562 8.28125 -8.71875 8.625 -8.71875 Z M 13.578125 -8.71875 "/></g></g></g><g fill="#313131" fill-opacity="1"><g transform="translate(202.335287, 22.140654)"><g><path d="M 13.03125 -5.75 C 13.394531 -5.75 13.65625 -5.644531 13.8125 -5.4375 C 13.976562 -5.238281 14.0625 -4.96875 14.0625 -4.625 L 14.0625 -1.34375 C 14.0625 -0.945312 13.929688 -0.625 13.671875 -0.375 C 13.421875 -0.125 13.09375 0 12.6875 0 L 2.328125 0 C 1.984375 0 1.707031 -0.0820312 1.5 -0.25 C 1.300781 -0.414062 1.203125 -0.675781 1.203125 -1.03125 L 1.203125 -2.0625 C 1.203125 -2.425781 1.300781 -2.691406 1.5 -2.859375 C 1.707031 -3.035156 1.984375 -3.125 2.328125 -3.125 L 2.671875 -3.125 L 2.671875 -13.3125 L 2.328125 -13.3125 C 1.984375 -13.3125 1.707031 -13.394531 1.5 -13.5625 C 1.300781 -13.738281 1.203125 -14.007812 1.203125 -14.375 L 1.203125 -15.40625 C 1.203125 -15.769531 1.300781 -16.03125 1.5 -16.1875 C 1.707031 -16.351562 1.984375 -16.4375 2.328125 -16.4375 L 12.546875 -16.4375 C 12.953125 -16.4375 13.28125 -16.304688 13.53125 -16.046875 C 13.789062 -15.796875 13.921875 -15.460938 13.921875 -15.046875 L 13.921875 -12.1875 C 13.921875 -11.84375 13.835938 -11.566406 13.671875 -11.359375 C 13.515625 -11.160156 13.253906 -11.0625 12.890625 -11.0625 L 11.859375 -11.0625 C 11.171875 -11.0625 10.828125 -11.4375 10.828125 -12.1875 L 10.828125 -13.3125 L 6.4375 -13.3125 L 6.4375 -10.046875 L 9.859375 -10.046875 C 10.191406 -10.046875 10.46875 -9.9375 10.6875 -9.71875 C 10.90625 -9.5 11.015625 -9.226562 11.015625 -8.90625 L 11.015625 -8.109375 C 11.015625 -7.773438 10.90625 -7.5 10.6875 -7.28125 C 10.46875 -7.0625 10.191406 -6.953125 9.859375 -6.953125 L 6.4375 -6.953125 L 6.4375 -3.125 L 10.9375 -3.125 L 10.9375 -4.625 C 10.9375 -4.96875 11.019531 -5.238281 11.1875 -5.4375 C 11.363281 -5.644531 11.632812 -5.75 12 -5.75 Z M 13.03125 -5.75 "/></g></g></g></g></g><g transform="matrix(1, 0, 0, 1, 132, 264)"><g clip-path="url(#f17f1faaf8)"><g fill="#313131" fill-opacity="1"><g transform="translate(1.344111, 9.676253)"><g><path d="M 5.703125 -2.515625 C 5.898438 -2.515625 6.070312 -2.457031 6.21875 -2.34375 C 6.375 -2.226562 6.453125 -2.078125 6.453125 -1.890625 C 6.453125 -1.796875 6.425781 -1.675781 6.375 -1.53125 C 6.332031 -1.394531 6.273438 -1.269531 6.203125 -1.15625 C 5.953125 -0.726562 5.628906 -0.410156 5.234375 -0.203125 C 4.847656 0.00390625 4.367188 0.109375 3.796875 0.109375 C 3.140625 0.109375 2.566406 -0.046875 2.078125 -0.359375 C 1.585938 -0.679688 1.210938 -1.132812 0.953125 -1.71875 C 0.703125 -2.3125 0.578125 -3 0.578125 -3.78125 C 0.578125 -4.550781 0.703125 -5.21875 0.953125 -5.78125 C 1.210938 -6.34375 1.582031 -6.773438 2.0625 -7.078125 C 2.550781 -7.378906 3.132812 -7.53125 3.8125 -7.53125 C 4.300781 -7.53125 4.75 -7.453125 5.15625 -7.296875 C 5.5625 -7.140625 5.878906 -6.921875 6.109375 -6.640625 C 6.335938 -6.359375 6.453125 -6.046875 6.453125 -5.703125 C 6.453125 -5.390625 6.359375 -5.132812 6.171875 -4.9375 C 5.984375 -4.738281 5.738281 -4.640625 5.4375 -4.640625 C 5.132812 -4.640625 4.890625 -4.722656 4.703125 -4.890625 C 4.523438 -5.054688 4.4375 -5.273438 4.4375 -5.546875 C 4.4375 -5.691406 4.460938 -5.832031 4.515625 -5.96875 C 4.359375 -6.070312 4.132812 -6.125 3.84375 -6.125 C 3.300781 -6.125 2.90625 -5.9375 2.65625 -5.5625 C 2.414062 -5.1875 2.296875 -4.601562 2.296875 -3.8125 C 2.296875 -2.976562 2.425781 -2.351562 2.6875 -1.9375 C 2.957031 -1.519531 3.367188 -1.3125 3.921875 -1.3125 C 4.179688 -1.3125 4.398438 -1.367188 4.578125 -1.484375 C 4.753906 -1.597656 4.90625 -1.78125 5.03125 -2.03125 C 5.125 -2.21875 5.21875 -2.34375 5.3125 -2.40625 C 5.40625 -2.476562 5.535156 -2.515625 5.703125 -2.515625 Z M 5.703125 -2.515625 "/></g></g></g><g fill="#313131" fill-opacity="1"><g transform="translate(10.343823, 9.676253)"><g><path d="M 6.890625 -7.421875 C 7.035156 -7.421875 7.15625 -7.382812 7.25 -7.3125 C 7.34375 -7.238281 7.390625 -7.117188 7.390625 -6.953125 L 7.390625 -6.5 C 7.390625 -6.332031 7.34375 -6.207031 7.25 -6.125 C 7.15625 -6.050781 7.035156 -6.015625 6.890625 -6.015625 L 6.71875 -6.015625 L 6.71875 -2.8125 C 6.71875 -1.894531 6.46875 -1.175781 5.96875 -0.65625 C 5.476562 -0.144531 4.78125 0.109375 3.875 0.109375 C 2.976562 0.109375 2.28125 -0.144531 1.78125 -0.65625 C 1.289062 -1.175781 1.046875 -1.890625 1.046875 -2.796875 L 1.046875 -6.015625 L 0.875 -6.015625 C 0.726562 -6.015625 0.609375 -6.050781 0.515625 -6.125 C 0.421875 -6.207031 0.375 -6.332031 0.375 -6.5 L 0.375 -6.953125 C 0.375 -7.117188 0.421875 -7.238281 0.515625 -7.3125 C 0.609375 -7.382812 0.726562 -7.421875 0.875 -7.421875 L 2.890625 -7.421875 C 3.046875 -7.421875 3.171875 -7.382812 3.265625 -7.3125 C 3.359375 -7.238281 3.40625 -7.117188 3.40625 -6.953125 L 3.40625 -6.5 C 3.40625 -6.332031 3.359375 -6.207031 3.265625 -6.125 C 3.171875 -6.050781 3.046875 -6.015625 2.890625 -6.015625 L 2.734375 -6.015625 L 2.734375 -2.828125 C 2.734375 -1.816406 3.117188 -1.3125 3.890625 -1.3125 C 4.648438 -1.3125 5.03125 -1.804688 5.03125 -2.796875 L 5.03125 -6.015625 L 4.875 -6.015625 C 4.71875 -6.015625 4.59375 -6.050781 4.5 -6.125 C 4.40625 -6.207031 4.359375 -6.332031 4.359375 -6.5 L 4.359375 -6.953125 C 4.359375 -7.117188 4.40625 -7.238281 4.5 -7.3125 C 4.59375 -7.382812 4.71875 -7.421875 4.875 -7.421875 Z M 6.890625 -7.421875 "/></g></g></g><g fill="#313131" fill-opacity="1"><g transform="translate(20.149015, 9.676253)"><g><path d="M 3.546875 -4.484375 C 4.191406 -4.285156 4.6875 -4.085938 5.03125 -3.890625 C 5.375 -3.691406 5.617188 -3.453125 5.765625 -3.171875 C 5.910156 -2.898438 5.984375 -2.550781 5.984375 -2.125 C 5.984375 -1.707031 5.863281 -1.328125 5.625 -0.984375 C 5.394531 -0.648438 5.070312 -0.382812 4.65625 -0.1875 C 4.25 0.0078125 3.789062 0.109375 3.28125 0.109375 C 2.738281 0.109375 2.257812 0.0351562 1.84375 -0.109375 C 1.4375 -0.253906 1.117188 -0.457031 0.890625 -0.71875 C 0.660156 -0.976562 0.546875 -1.28125 0.546875 -1.625 C 0.546875 -1.9375 0.640625 -2.191406 0.828125 -2.390625 C 1.015625 -2.585938 1.257812 -2.6875 1.5625 -2.6875 C 1.863281 -2.6875 2.101562 -2.601562 2.28125 -2.4375 C 2.46875 -2.269531 2.5625 -2.050781 2.5625 -1.78125 C 2.5625 -1.675781 2.539062 -1.5625 2.5 -1.4375 C 2.707031 -1.351562 2.9375 -1.3125 3.1875 -1.3125 C 3.914062 -1.3125 4.28125 -1.550781 4.28125 -2.03125 C 4.28125 -2.164062 4.25 -2.273438 4.1875 -2.359375 C 4.132812 -2.441406 4.035156 -2.515625 3.890625 -2.578125 C 3.742188 -2.648438 3.515625 -2.734375 3.203125 -2.828125 C 2.578125 -3.023438 2.082031 -3.234375 1.71875 -3.453125 C 1.351562 -3.671875 1.082031 -3.921875 0.90625 -4.203125 C 0.726562 -4.492188 0.640625 -4.84375 0.640625 -5.25 C 0.640625 -5.695312 0.757812 -6.09375 1 -6.4375 C 1.238281 -6.78125 1.570312 -7.046875 2 -7.234375 C 2.425781 -7.429688 2.921875 -7.53125 3.484375 -7.53125 C 3.941406 -7.53125 4.351562 -7.453125 4.71875 -7.296875 C 5.082031 -7.148438 5.367188 -6.941406 5.578125 -6.671875 C 5.785156 -6.410156 5.890625 -6.113281 5.890625 -5.78125 C 5.890625 -5.46875 5.796875 -5.210938 5.609375 -5.015625 C 5.429688 -4.816406 5.1875 -4.71875 4.875 -4.71875 C 4.582031 -4.71875 4.34375 -4.796875 4.15625 -4.953125 C 3.976562 -5.117188 3.890625 -5.34375 3.890625 -5.625 C 3.890625 -5.757812 3.910156 -5.878906 3.953125 -5.984375 C 3.828125 -6.078125 3.617188 -6.125 3.328125 -6.125 C 3.015625 -6.125 2.769531 -6.054688 2.59375 -5.921875 C 2.425781 -5.796875 2.34375 -5.625 2.34375 -5.40625 C 2.34375 -5.25 2.375 -5.125 2.4375 -5.03125 C 2.507812 -4.9375 2.628906 -4.847656 2.796875 -4.765625 C 2.960938 -4.679688 3.210938 -4.585938 3.546875 -4.484375 Z M 3.546875 -4.484375 "/></g></g></g><g fill="#313131" fill-opacity="1"><g transform="translate(28.735399, 9.676253)"><g><path d="M 6.0625 -7.421875 C 6.25 -7.421875 6.398438 -7.363281 6.515625 -7.25 C 6.628906 -7.132812 6.6875 -6.984375 6.6875 -6.796875 L 6.6875 -5.46875 C 6.6875 -5.3125 6.648438 -5.1875 6.578125 -5.09375 C 6.503906 -5.007812 6.390625 -4.96875 6.234375 -4.96875 L 5.765625 -4.96875 C 5.597656 -4.96875 5.472656 -5.007812 5.390625 -5.09375 C 5.316406 -5.1875 5.28125 -5.3125 5.28125 -5.46875 L 5.28125 -6.015625 L 4.40625 -6.015625 L 4.40625 -1.40625 L 4.578125 -1.40625 C 4.722656 -1.40625 4.84375 -1.363281 4.9375 -1.28125 C 5.03125 -1.207031 5.078125 -1.09375 5.078125 -0.9375 L 5.078125 -0.46875 C 5.078125 -0.300781 5.03125 -0.179688 4.9375 -0.109375 C 4.84375 -0.0351562 4.722656 0 4.578125 0 L 2.5625 0 C 2.40625 0 2.28125 -0.0351562 2.1875 -0.109375 C 2.09375 -0.179688 2.046875 -0.300781 2.046875 -0.46875 L 2.046875 -0.9375 C 2.046875 -1.09375 2.09375 -1.207031 2.1875 -1.28125 C 2.28125 -1.363281 2.40625 -1.40625 2.5625 -1.40625 L 2.71875 -1.40625 L 2.71875 -6.015625 L 1.828125 -6.015625 L 1.828125 -5.46875 C 1.828125 -5.3125 1.789062 -5.1875 1.71875 -5.09375 C 1.644531 -5.007812 1.53125 -4.96875 1.375 -4.96875 L 0.890625 -4.96875 C 0.722656 -4.96875 0.601562 -5.007812 0.53125 -5.09375 C 0.457031 -5.1875 0.421875 -5.3125 0.421875 -5.46875 L 0.421875 -6.796875 C 0.421875 -6.984375 0.476562 -7.132812 0.59375 -7.25 C 0.71875 -7.363281 0.867188 -7.421875 1.046875 -7.421875 Z M 6.0625 -7.421875 "/></g></g></g><g fill="#313131" fill-opacity="1"><g transform="translate(37.724421, 9.676253)"><g><path d="M 3.921875 0.109375 C 3.210938 0.109375 2.609375 -0.0351562 2.109375 -0.328125 C 1.609375 -0.628906 1.222656 -1.0625 0.953125 -1.625 C 0.691406 -2.1875 0.5625 -2.851562 0.5625 -3.625 C 0.5625 -4.414062 0.703125 -5.109375 0.984375 -5.703125 C 1.265625 -6.296875 1.664062 -6.75 2.1875 -7.0625 C 2.71875 -7.375 3.335938 -7.53125 4.046875 -7.53125 C 4.742188 -7.53125 5.34375 -7.378906 5.84375 -7.078125 C 6.34375 -6.785156 6.722656 -6.359375 6.984375 -5.796875 C 7.253906 -5.242188 7.390625 -4.582031 7.390625 -3.8125 C 7.390625 -3.007812 7.25 -2.3125 6.96875 -1.71875 C 6.6875 -1.132812 6.28125 -0.679688 5.75 -0.359375 C 5.226562 -0.046875 4.617188 0.109375 3.921875 0.109375 Z M 3.921875 -1.3125 C 5.078125 -1.3125 5.65625 -2.140625 5.65625 -3.796875 C 5.65625 -4.585938 5.519531 -5.171875 5.25 -5.546875 C 4.976562 -5.929688 4.570312 -6.125 4.03125 -6.125 C 2.875 -6.125 2.296875 -5.296875 2.296875 -3.640625 C 2.296875 -2.835938 2.425781 -2.25 2.6875 -1.875 C 2.957031 -1.5 3.367188 -1.3125 3.921875 -1.3125 Z M 3.921875 -1.3125 "/></g></g></g><g fill="#313131" fill-opacity="1"><g transform="translate(47.656751, 9.676253)"><g><path d="M 8.515625 -6.015625 L 8.515625 -1.40625 L 8.671875 -1.40625 C 8.828125 -1.40625 8.953125 -1.363281 9.046875 -1.28125 C 9.140625 -1.207031 9.1875 -1.09375 9.1875 -0.9375 L 9.1875 -0.46875 C 9.1875 -0.300781 9.140625 -0.179688 9.046875 -0.109375 C 8.953125 -0.0351562 8.828125 0 8.671875 0 L 6.65625 0 C 6.507812 0 6.390625 -0.0351562 6.296875 -0.109375 C 6.203125 -0.179688 6.15625 -0.300781 6.15625 -0.46875 L 6.15625 -0.9375 C 6.15625 -1.09375 6.203125 -1.207031 6.296875 -1.28125 C 6.390625 -1.363281 6.507812 -1.40625 6.65625 -1.40625 L 6.828125 -1.40625 L 6.828125 -5.859375 L 5.4375 -2.421875 C 5.34375 -2.210938 5.195312 -2.109375 5 -2.109375 L 4.46875 -2.109375 C 4.25 -2.109375 4.101562 -2.210938 4.03125 -2.421875 L 2.625 -5.890625 L 2.625 -1.40625 L 2.796875 -1.40625 C 2.953125 -1.40625 3.070312 -1.363281 3.15625 -1.28125 C 3.25 -1.207031 3.296875 -1.09375 3.296875 -0.9375 L 3.296875 -0.46875 C 3.296875 -0.300781 3.25 -0.179688 3.15625 -0.109375 C 3.070312 -0.0351562 2.953125 0 2.796875 0 L 1.046875 0 C 0.890625 0 0.765625 -0.0351562 0.671875 -0.109375 C 0.585938 -0.179688 0.546875 -0.300781 0.546875 -0.46875 L 0.546875 -0.9375 C 0.546875 -1.09375 0.585938 -1.207031 0.671875 -1.28125 C 0.765625 -1.363281 0.890625 -1.40625 1.046875 -1.40625 L 1.203125 -1.40625 L 1.203125 -6.015625 L 1.046875 -6.015625 C 0.890625 -6.015625 0.765625 -6.050781 0.671875 -6.125 C 0.585938 -6.207031 0.546875 -6.332031 0.546875 -6.5 L 0.546875 -6.953125 C 0.546875 -7.117188 0.585938 -7.238281 0.671875 -7.3125 C 0.765625 -7.382812 0.890625 -7.421875 1.046875 -7.421875 L 3.390625 -7.421875 C 3.617188 -7.421875 3.769531 -7.316406 3.84375 -7.109375 L 4.875 -4.5 L 5.921875 -7.109375 C 6.003906 -7.316406 6.15625 -7.421875 6.375 -7.421875 L 8.671875 -7.421875 C 8.828125 -7.421875 8.953125 -7.382812 9.046875 -7.3125 C 9.140625 -7.238281 9.1875 -7.117188 9.1875 -6.953125 L 9.1875 -6.5 C 9.1875 -6.332031 9.140625 -6.207031 9.046875 -6.125 C 8.953125 -6.050781 8.828125 -6.015625 8.671875 -6.015625 Z M 8.515625 -6.015625 "/></g></g></g><g fill="#313131" fill-opacity="1"><g transform="translate(59.422635, 9.676253)"><g/></g></g><g fill="#313131" fill-opacity="1"><g transform="translate(64.479775, 9.676253)"><g><path d="M 5.125 -4.078125 C 5.601562 -3.972656 5.976562 -3.757812 6.25 -3.4375 C 6.519531 -3.113281 6.65625 -2.722656 6.65625 -2.265625 C 6.65625 -1.554688 6.378906 -1 5.828125 -0.59375 C 5.273438 -0.195312 4.515625 0 3.546875 0 L 1.046875 0 C 0.890625 0 0.765625 -0.0351562 0.671875 -0.109375 C 0.585938 -0.179688 0.546875 -0.300781 0.546875 -0.46875 L 0.546875 -0.9375 C 0.546875 -1.09375 0.585938 -1.207031 0.671875 -1.28125 C 0.765625 -1.363281 0.890625 -1.40625 1.046875 -1.40625 L 1.203125 -1.40625 L 1.203125 -6.015625 L 1.046875 -6.015625 C 0.890625 -6.015625 0.765625 -6.050781 0.671875 -6.125 C 0.585938 -6.207031 0.546875 -6.332031 0.546875 -6.5 L 0.546875 -6.953125 C 0.546875 -7.117188 0.585938 -7.238281 0.671875 -7.3125 C 0.765625 -7.382812 0.890625 -7.421875 1.046875 -7.421875 L 3.53125 -7.421875 C 4.46875 -7.421875 5.160156 -7.28125 5.609375 -7 C 6.066406 -6.71875 6.296875 -6.28125 6.296875 -5.6875 C 6.296875 -5.3125 6.195312 -4.984375 6 -4.703125 C 5.800781 -4.429688 5.507812 -4.222656 5.125 -4.078125 Z M 2.90625 -6.015625 L 2.90625 -4.5 L 3.359375 -4.5 C 3.773438 -4.5 4.078125 -4.5625 4.265625 -4.6875 C 4.460938 -4.8125 4.5625 -5.019531 4.5625 -5.3125 C 4.5625 -5.570312 4.472656 -5.753906 4.296875 -5.859375 C 4.128906 -5.960938 3.835938 -6.015625 3.421875 -6.015625 Z M 3.421875 -1.40625 C 3.972656 -1.40625 4.359375 -1.472656 4.578125 -1.609375 C 4.796875 -1.742188 4.90625 -1.972656 4.90625 -2.296875 C 4.90625 -2.585938 4.804688 -2.789062 4.609375 -2.90625 C 4.421875 -3.03125 4.109375 -3.09375 3.671875 -3.09375 L 2.90625 -3.09375 L 2.90625 -1.40625 Z M 3.421875 -1.40625 "/></g></g></g><g fill="#313131" fill-opacity="1"><g transform="translate(73.670254, 9.676253)"><g><path d="M 5.890625 -2.59375 C 6.046875 -2.59375 6.160156 -2.546875 6.234375 -2.453125 C 6.316406 -2.367188 6.359375 -2.25 6.359375 -2.09375 L 6.359375 -0.609375 C 6.359375 -0.429688 6.296875 -0.285156 6.171875 -0.171875 C 6.054688 -0.0546875 5.910156 0 5.734375 0 L 1.046875 0 C 0.890625 0 0.765625 -0.0351562 0.671875 -0.109375 C 0.585938 -0.179688 0.546875 -0.300781 0.546875 -0.46875 L 0.546875 -0.9375 C 0.546875 -1.09375 0.585938 -1.207031 0.671875 -1.28125 C 0.765625 -1.363281 0.890625 -1.40625 1.046875 -1.40625 L 1.203125 -1.40625 L 1.203125 -6.015625 L 1.046875 -6.015625 C 0.890625 -6.015625 0.765625 -6.050781 0.671875 -6.125 C 0.585938 -6.207031 0.546875 -6.332031 0.546875 -6.5 L 0.546875 -6.953125 C 0.546875 -7.117188 0.585938 -7.238281 0.671875 -7.3125 C 0.765625 -7.382812 0.890625 -7.421875 1.046875 -7.421875 L 5.671875 -7.421875 C 5.847656 -7.421875 5.992188 -7.363281 6.109375 -7.25 C 6.234375 -7.132812 6.296875 -6.984375 6.296875 -6.796875 L 6.296875 -5.5 C 6.296875 -5.34375 6.253906 -5.21875 6.171875 -5.125 C 6.097656 -5.039062 5.984375 -5 5.828125 -5 L 5.359375 -5 C 5.046875 -5 4.890625 -5.164062 4.890625 -5.5 L 4.890625 -6.015625 L 2.90625 -6.015625 L 2.90625 -4.546875 L 4.453125 -4.546875 C 4.597656 -4.546875 4.71875 -4.492188 4.8125 -4.390625 C 4.914062 -4.296875 4.96875 -4.171875 4.96875 -4.015625 L 4.96875 -3.65625 C 4.96875 -3.507812 4.914062 -3.382812 4.8125 -3.28125 C 4.71875 -3.1875 4.597656 -3.140625 4.453125 -3.140625 L 2.90625 -3.140625 L 2.90625 -1.40625 L 4.9375 -1.40625 L 4.9375 -2.09375 C 4.9375 -2.25 4.972656 -2.367188 5.046875 -2.453125 C 5.128906 -2.546875 5.253906 -2.59375 5.421875 -2.59375 Z M 5.890625 -2.59375 "/></g></g></g><g fill="#313131" fill-opacity="1"><g transform="translate(82.744152, 9.676253)"><g><path d="M 7.0625 -1.40625 C 7.21875 -1.40625 7.34375 -1.363281 7.4375 -1.28125 C 7.53125 -1.207031 7.578125 -1.09375 7.578125 -0.9375 L 7.578125 -0.46875 C 7.578125 -0.300781 7.53125 -0.179688 7.4375 -0.109375 C 7.34375 -0.0351562 7.21875 0 7.0625 0 L 5 0 C 4.851562 0 4.734375 -0.0351562 4.640625 -0.109375 C 4.546875 -0.179688 4.5 -0.300781 4.5 -0.46875 L 4.5 -0.9375 C 4.5 -1.09375 4.546875 -1.207031 4.640625 -1.28125 C 4.734375 -1.363281 4.851562 -1.40625 5 -1.40625 L 5.171875 -1.40625 L 4.875 -2.28125 L 2.734375 -2.28125 L 2.4375 -1.40625 L 2.609375 -1.40625 C 2.753906 -1.40625 2.875 -1.363281 2.96875 -1.28125 C 3.0625 -1.207031 3.109375 -1.09375 3.109375 -0.9375 L 3.109375 -0.46875 C 3.109375 -0.300781 3.0625 -0.179688 2.96875 -0.109375 C 2.875 -0.0351562 2.753906 0 2.609375 0 L 0.828125 0 C 0.679688 0 0.554688 -0.0351562 0.453125 -0.109375 C 0.359375 -0.179688 0.3125 -0.300781 0.3125 -0.46875 L 0.3125 -0.9375 C 0.3125 -1.09375 0.359375 -1.207031 0.453125 -1.28125 C 0.554688 -1.363281 0.679688 -1.40625 0.828125 -1.40625 L 0.984375 -1.40625 L 3.015625 -7.0625 C 3.046875 -7.164062 3.109375 -7.25 3.203125 -7.3125 C 3.304688 -7.382812 3.414062 -7.421875 3.53125 -7.421875 L 4.359375 -7.421875 C 4.484375 -7.421875 4.59375 -7.382812 4.6875 -7.3125 C 4.78125 -7.25 4.84375 -7.164062 4.875 -7.0625 L 6.90625 -1.40625 Z M 4.375 -3.6875 L 3.8125 -5.390625 L 3.21875 -3.6875 Z M 4.375 -3.6875 "/></g></g></g><g fill="#313131" fill-opacity="1"><g transform="translate(92.241738, 9.676253)"><g><path d="M 5.703125 -2.515625 C 5.898438 -2.515625 6.070312 -2.457031 6.21875 -2.34375 C 6.375 -2.226562 6.453125 -2.078125 6.453125 -1.890625 C 6.453125 -1.796875 6.425781 -1.675781 6.375 -1.53125 C 6.332031 -1.394531 6.273438 -1.269531 6.203125 -1.15625 C 5.953125 -0.726562 5.628906 -0.410156 5.234375 -0.203125 C 4.847656 0.00390625 4.367188 0.109375 3.796875 0.109375 C 3.140625 0.109375 2.566406 -0.046875 2.078125 -0.359375 C 1.585938 -0.679688 1.210938 -1.132812 0.953125 -1.71875 C 0.703125 -2.3125 0.578125 -3 0.578125 -3.78125 C 0.578125 -4.550781 0.703125 -5.21875 0.953125 -5.78125 C 1.210938 -6.34375 1.582031 -6.773438 2.0625 -7.078125 C 2.550781 -7.378906 3.132812 -7.53125 3.8125 -7.53125 C 4.300781 -7.53125 4.75 -7.453125 5.15625 -7.296875 C 5.5625 -7.140625 5.878906 -6.921875 6.109375 -6.640625 C 6.335938 -6.359375 6.453125 -6.046875 6.453125 -5.703125 C 6.453125 -5.390625 6.359375 -5.132812 6.171875 -4.9375 C 5.984375 -4.738281 5.738281 -4.640625 5.4375 -4.640625 C 5.132812 -4.640625 4.890625 -4.722656 4.703125 -4.890625 C 4.523438 -5.054688 4.4375 -5.273438 4.4375 -5.546875 C 4.4375 -5.691406 4.460938 -5.832031 4.515625 -5.96875 C 4.359375 -6.070312 4.132812 -6.125 3.84375 -6.125 C 3.300781 -6.125 2.90625 -5.9375 2.65625 -5.5625 C 2.414062 -5.1875 2.296875 -4.601562 2.296875 -3.8125 C 2.296875 -2.976562 2.425781 -2.351562 2.6875 -1.9375 C 2.957031 -1.519531 3.367188 -1.3125 3.921875 -1.3125 C 4.179688 -1.3125 4.398438 -1.367188 4.578125 -1.484375 C 4.753906 -1.597656 4.90625 -1.78125 5.03125 -2.03125 C 5.125 -2.21875 5.21875 -2.34375 5.3125 -2.40625 C 5.40625 -2.476562 5.535156 -2.515625 5.703125 -2.515625 Z M 5.703125 -2.515625 "/></g></g></g><g fill="#313131" fill-opacity="1"><g transform="translate(101.24145, 9.676253)"><g><path d="M 7.1875 -6.015625 L 7.1875 -1.40625 L 7.34375 -1.40625 C 7.488281 -1.40625 7.609375 -1.363281 7.703125 -1.28125 C 7.796875 -1.207031 7.84375 -1.09375 7.84375 -0.9375 L 7.84375 -0.46875 C 7.84375 -0.300781 7.796875 -0.179688 7.703125 -0.109375 C 7.609375 -0.0351562 7.488281 0 7.34375 0 L 5.328125 0 C 5.171875 0 5.046875 -0.0351562 4.953125 -0.109375 C 4.859375 -0.179688 4.8125 -0.300781 4.8125 -0.46875 L 4.8125 -0.9375 C 4.8125 -1.09375 4.859375 -1.207031 4.953125 -1.28125 C 5.046875 -1.363281 5.171875 -1.40625 5.328125 -1.40625 L 5.484375 -1.40625 L 5.484375 -3.078125 L 2.90625 -3.078125 L 2.90625 -1.40625 L 3.0625 -1.40625 C 3.207031 -1.40625 3.328125 -1.363281 3.421875 -1.28125 C 3.515625 -1.207031 3.5625 -1.09375 3.5625 -0.9375 L 3.5625 -0.46875 C 3.5625 -0.300781 3.515625 -0.179688 3.421875 -0.109375 C 3.328125 -0.0351562 3.207031 0 3.0625 0 L 1.046875 0 C 0.890625 0 0.765625 -0.0351562 0.671875 -0.109375 C 0.585938 -0.179688 0.546875 -0.300781 0.546875 -0.46875 L 0.546875 -0.9375 C 0.546875 -1.09375 0.585938 -1.207031 0.671875 -1.28125 C 0.765625 -1.363281 0.890625 -1.40625 1.046875 -1.40625 L 1.203125 -1.40625 L 1.203125 -6.015625 L 1.046875 -6.015625 C 0.890625 -6.015625 0.765625 -6.050781 0.671875 -6.125 C 0.585938 -6.207031 0.546875 -6.332031 0.546875 -6.5 L 0.546875 -6.953125 C 0.546875 -7.117188 0.585938 -7.238281 0.671875 -7.3125 C 0.765625 -7.382812 0.890625 -7.421875 1.046875 -7.421875 L 3.0625 -7.421875 C 3.207031 -7.421875 3.328125 -7.382812 3.421875 -7.3125 C 3.515625 -7.238281 3.5625 -7.117188 3.5625 -6.953125 L 3.5625 -6.5 C 3.5625 -6.332031 3.515625 -6.207031 3.421875 -6.125 C 3.328125 -6.050781 3.207031 -6.015625 3.0625 -6.015625 L 2.90625 -6.015625 L 2.90625 -4.484375 L 5.484375 -4.484375 L 5.484375 -6.015625 L 5.328125 -6.015625 C 5.171875 -6.015625 5.046875 -6.050781 4.953125 -6.125 C 4.859375 -6.207031 4.8125 -6.332031 4.8125 -6.5 L 4.8125 -6.953125 C 4.8125 -7.117188 4.859375 -7.238281 4.953125 -7.3125 C 5.046875 -7.382812 5.171875 -7.421875 5.328125 -7.421875 L 7.34375 -7.421875 C 7.488281 -7.421875 7.609375 -7.382812 7.703125 -7.3125 C 7.796875 -7.238281 7.84375 -7.117188 7.84375 -6.953125 L 7.84375 -6.5 C 7.84375 -6.332031 7.796875 -6.207031 7.703125 -6.125 C 7.609375 -6.050781 7.488281 -6.015625 7.34375 -6.015625 Z M 7.1875 -6.015625 "/></g></g></g><g fill="#313131" fill-opacity="1"><g transform="translate(24.331905, 24.006306)"><g><path d="M 7.0625 -1.40625 C 7.21875 -1.40625 7.34375 -1.363281 7.4375 -1.28125 C 7.53125 -1.207031 7.578125 -1.09375 7.578125 -0.9375 L 7.578125 -0.46875 C 7.578125 -0.300781 7.53125 -0.179688 7.4375 -0.109375 C 7.34375 -0.0351562 7.21875 0 7.0625 0 L 5 0 C 4.851562 0 4.734375 -0.0351562 4.640625 -0.109375 C 4.546875 -0.179688 4.5 -0.300781 4.5 -0.46875 L 4.5 -0.9375 C 4.5 -1.09375 4.546875 -1.207031 4.640625 -1.28125 C 4.734375 -1.363281 4.851562 -1.40625 5 -1.40625 L 5.171875 -1.40625 L 4.875 -2.28125 L 2.734375 -2.28125 L 2.4375 -1.40625 L 2.609375 -1.40625 C 2.753906 -1.40625 2.875 -1.363281 2.96875 -1.28125 C 3.0625 -1.207031 3.109375 -1.09375 3.109375 -0.9375 L 3.109375 -0.46875 C 3.109375 -0.300781 3.0625 -0.179688 2.96875 -0.109375 C 2.875 -0.0351562 2.753906 0 2.609375 0 L 0.828125 0 C 0.679688 0 0.554688 -0.0351562 0.453125 -0.109375 C 0.359375 -0.179688 0.3125 -0.300781 0.3125 -0.46875 L 0.3125 -0.9375 C 0.3125 -1.09375 0.359375 -1.207031 0.453125 -1.28125 C 0.554688 -1.363281 0.679688 -1.40625 0.828125 -1.40625 L 0.984375 -1.40625 L 3.015625 -7.0625 C 3.046875 -7.164062 3.109375 -7.25 3.203125 -7.3125 C 3.304688 -7.382812 3.414062 -7.421875 3.53125 -7.421875 L 4.359375 -7.421875 C 4.484375 -7.421875 4.59375 -7.382812 4.6875 -7.3125 C 4.78125 -7.25 4.84375 -7.164062 4.875 -7.0625 L 6.90625 -1.40625 Z M 4.375 -3.6875 L 3.8125 -5.390625 L 3.21875 -3.6875 Z M 4.375 -3.6875 "/></g></g></g><g fill="#313131" fill-opacity="1"><g transform="translate(34.264272, 24.006306)"><g><path d="M 3.765625 -7.421875 C 4.679688 -7.421875 5.367188 -7.234375 5.828125 -6.859375 C 6.296875 -6.484375 6.53125 -5.925781 6.53125 -5.1875 C 6.53125 -4.695312 6.40625 -4.269531 6.15625 -3.90625 C 5.914062 -3.539062 5.578125 -3.253906 5.140625 -3.046875 C 4.703125 -2.847656 4.195312 -2.75 3.625 -2.75 L 2.90625 -2.75 L 2.90625 -1.40625 L 3.0625 -1.40625 C 3.207031 -1.40625 3.328125 -1.363281 3.421875 -1.28125 C 3.515625 -1.207031 3.5625 -1.09375 3.5625 -0.9375 L 3.5625 -0.46875 C 3.5625 -0.300781 3.515625 -0.179688 3.421875 -0.109375 C 3.328125 -0.0351562 3.207031 0 3.0625 0 L 1.046875 0 C 0.890625 0 0.765625 -0.0351562 0.671875 -0.109375 C 0.585938 -0.179688 0.546875 -0.300781 0.546875 -0.46875 L 0.546875 -0.9375 C 0.546875 -1.09375 0.585938 -1.207031 0.671875 -1.28125 C 0.765625 -1.363281 0.890625 -1.40625 1.046875 -1.40625 L 1.203125 -1.40625 L 1.203125 -6.015625 L 1.046875 -6.015625 C 0.890625 -6.015625 0.765625 -6.050781 0.671875 -6.125 C 0.585938 -6.207031 0.546875 -6.332031 0.546875 -6.5 L 0.546875 -6.953125 C 0.546875 -7.117188 0.585938 -7.238281 0.671875 -7.3125 C 0.765625 -7.382812 0.890625 -7.421875 1.046875 -7.421875 Z M 3.5625 -4.15625 C 3.988281 -4.15625 4.300781 -4.234375 4.5 -4.390625 C 4.695312 -4.554688 4.796875 -4.8125 4.796875 -5.15625 C 4.796875 -5.445312 4.703125 -5.660156 4.515625 -5.796875 C 4.335938 -5.941406 4.066406 -6.015625 3.703125 -6.015625 L 2.90625 -6.015625 L 2.90625 -4.15625 Z M 3.5625 -4.15625 "/></g></g></g><g fill="#313131" fill-opacity="1"><g transform="translate(43.25339, 24.006306)"><g><path d="M 3.765625 -7.421875 C 4.679688 -7.421875 5.367188 -7.234375 5.828125 -6.859375 C 6.296875 -6.484375 6.53125 -5.925781 6.53125 -5.1875 C 6.53125 -4.695312 6.40625 -4.269531 6.15625 -3.90625 C 5.914062 -3.539062 5.578125 -3.253906 5.140625 -3.046875 C 4.703125 -2.847656 4.195312 -2.75 3.625 -2.75 L 2.90625 -2.75 L 2.90625 -1.40625 L 3.0625 -1.40625 C 3.207031 -1.40625 3.328125 -1.363281 3.421875 -1.28125 C 3.515625 -1.207031 3.5625 -1.09375 3.5625 -0.9375 L 3.5625 -0.46875 C 3.5625 -0.300781 3.515625 -0.179688 3.421875 -0.109375 C 3.328125 -0.0351562 3.207031 0 3.0625 0 L 1.046875 0 C 0.890625 0 0.765625 -0.0351562 0.671875 -0.109375 C 0.585938 -0.179688 0.546875 -0.300781 0.546875 -0.46875 L 0.546875 -0.9375 C 0.546875 -1.09375 0.585938 -1.207031 0.671875 -1.28125 C 0.765625 -1.363281 0.890625 -1.40625 1.046875 -1.40625 L 1.203125 -1.40625 L 1.203125 -6.015625 L 1.046875 -6.015625 C 0.890625 -6.015625 0.765625 -6.050781 0.671875 -6.125 C 0.585938 -6.207031 0.546875 -6.332031 0.546875 -6.5 L 0.546875 -6.953125 C 0.546875 -7.117188 0.585938 -7.238281 0.671875 -7.3125 C 0.765625 -7.382812 0.890625 -7.421875 1.046875 -7.421875 Z M 3.5625 -4.15625 C 3.988281 -4.15625 4.300781 -4.234375 4.5 -4.390625 C 4.695312 -4.554688 4.796875 -4.8125 4.796875 -5.15625 C 4.796875 -5.445312 4.703125 -5.660156 4.515625 -5.796875 C 4.335938 -5.941406 4.066406 -6.015625 3.703125 -6.015625 L 2.90625 -6.015625 L 2.90625 -4.15625 Z M 3.5625 -4.15625 "/></g></g></g><g fill="#313131" fill-opacity="1"><g transform="translate(51.288122, 24.006306)"><g><path d="M 7.0625 -1.40625 C 7.21875 -1.40625 7.34375 -1.363281 7.4375 -1.28125 C 7.53125 -1.207031 7.578125 -1.09375 7.578125 -0.9375 L 7.578125 -0.46875 C 7.578125 -0.300781 7.53125 -0.179688 7.4375 -0.109375 C 7.34375 -0.0351562 7.21875 0 7.0625 0 L 5 0 C 4.851562 0 4.734375 -0.0351562 4.640625 -0.109375 C 4.546875 -0.179688 4.5 -0.300781 4.5 -0.46875 L 4.5 -0.9375 C 4.5 -1.09375 4.546875 -1.207031 4.640625 -1.28125 C 4.734375 -1.363281 4.851562 -1.40625 5 -1.40625 L 5.171875 -1.40625 L 4.875 -2.28125 L 2.734375 -2.28125 L 2.4375 -1.40625 L 2.609375 -1.40625 C 2.753906 -1.40625 2.875 -1.363281 2.96875 -1.28125 C 3.0625 -1.207031 3.109375 -1.09375 3.109375 -0.9375 L 3.109375 -0.46875 C 3.109375 -0.300781 3.0625 -0.179688 2.96875 -0.109375 C 2.875 -0.0351562 2.753906 0 2.609375 0 L 0.828125 0 C 0.679688 0 0.554688 -0.0351562 0.453125 -0.109375 C 0.359375 -0.179688 0.3125 -0.300781 0.3125 -0.46875 L 0.3125 -0.9375 C 0.3125 -1.09375 0.359375 -1.207031 0.453125 -1.28125 C 0.554688 -1.363281 0.679688 -1.40625 0.828125 -1.40625 L 0.984375 -1.40625 L 3.015625 -7.0625 C 3.046875 -7.164062 3.109375 -7.25 3.203125 -7.3125 C 3.304688 -7.382812 3.414062 -7.421875 3.53125 -7.421875 L 4.359375 -7.421875 C 4.484375 -7.421875 4.59375 -7.382812 4.6875 -7.3125 C 4.78125 -7.25 4.84375 -7.164062 4.875 -7.0625 L 6.90625 -1.40625 Z M 4.375 -3.6875 L 3.8125 -5.390625 L 3.21875 -3.6875 Z M 4.375 -3.6875 "/></g></g></g><g fill="#313131" fill-opacity="1"><g transform="translate(61.220488, 24.006306)"><g><path d="M 6.875 -1.40625 C 7.03125 -1.40625 7.15625 -1.363281 7.25 -1.28125 C 7.34375 -1.207031 7.390625 -1.09375 7.390625 -0.9375 L 7.390625 -0.46875 C 7.390625 -0.300781 7.34375 -0.179688 7.25 -0.109375 C 7.15625 -0.0351562 7.03125 0 6.875 0 L 5.53125 0 C 5.445312 0 5.367188 -0.0195312 5.296875 -0.0625 C 5.222656 -0.101562 5.164062 -0.164062 5.125 -0.25 L 4.140625 -2.03125 C 4.015625 -2.269531 3.90625 -2.445312 3.8125 -2.5625 C 3.726562 -2.675781 3.628906 -2.753906 3.515625 -2.796875 C 3.410156 -2.835938 3.269531 -2.859375 3.09375 -2.859375 L 2.90625 -2.859375 L 2.90625 -1.40625 L 3.0625 -1.40625 C 3.207031 -1.40625 3.328125 -1.363281 3.421875 -1.28125 C 3.515625 -1.207031 3.5625 -1.09375 3.5625 -0.9375 L 3.5625 -0.46875 C 3.5625 -0.300781 3.515625 -0.179688 3.421875 -0.109375 C 3.328125 -0.0351562 3.207031 0 3.0625 0 L 1.046875 0 C 0.890625 0 0.765625 -0.0351562 0.671875 -0.109375 C 0.585938 -0.179688 0.546875 -0.300781 0.546875 -0.46875 L 0.546875 -0.9375 C 0.546875 -1.09375 0.585938 -1.207031 0.671875 -1.28125 C 0.765625 -1.363281 0.890625 -1.40625 1.046875 -1.40625 L 1.203125 -1.40625 L 1.203125 -6.015625 L 1.046875 -6.015625 C 0.890625 -6.015625 0.765625 -6.050781 0.671875 -6.125 C 0.585938 -6.207031 0.546875 -6.332031 0.546875 -6.5 L 0.546875 -6.953125 C 0.546875 -7.117188 0.585938 -7.238281 0.671875 -7.3125 C 0.765625 -7.382812 0.890625 -7.421875 1.046875 -7.421875 L 3.71875 -7.421875 C 4.625 -7.421875 5.3125 -7.234375 5.78125 -6.859375 C 6.25 -6.492188 6.484375 -5.953125 6.484375 -5.234375 C 6.484375 -4.773438 6.359375 -4.378906 6.109375 -4.046875 C 5.867188 -3.710938 5.523438 -3.46875 5.078125 -3.3125 C 5.203125 -3.257812 5.320312 -3.171875 5.4375 -3.046875 C 5.550781 -2.929688 5.660156 -2.769531 5.765625 -2.5625 L 6.390625 -1.40625 Z M 3.546875 -4.25 C 3.972656 -4.25 4.28125 -4.320312 4.46875 -4.46875 C 4.65625 -4.625 4.75 -4.867188 4.75 -5.203125 C 4.75 -5.472656 4.65625 -5.675781 4.46875 -5.8125 C 4.289062 -5.945312 4.019531 -6.015625 3.65625 -6.015625 L 2.90625 -6.015625 L 2.90625 -4.25 Z M 3.546875 -4.25 "/></g></g></g><g fill="#313131" fill-opacity="1"><g transform="translate(70.962086, 24.006306)"><g><path d="M 5.890625 -2.59375 C 6.046875 -2.59375 6.160156 -2.546875 6.234375 -2.453125 C 6.316406 -2.367188 6.359375 -2.25 6.359375 -2.09375 L 6.359375 -0.609375 C 6.359375 -0.429688 6.296875 -0.285156 6.171875 -0.171875 C 6.054688 -0.0546875 5.910156 0 5.734375 0 L 1.046875 0 C 0.890625 0 0.765625 -0.0351562 0.671875 -0.109375 C 0.585938 -0.179688 0.546875 -0.300781 0.546875 -0.46875 L 0.546875 -0.9375 C 0.546875 -1.09375 0.585938 -1.207031 0.671875 -1.28125 C 0.765625 -1.363281 0.890625 -1.40625 1.046875 -1.40625 L 1.203125 -1.40625 L 1.203125 -6.015625 L 1.046875 -6.015625 C 0.890625 -6.015625 0.765625 -6.050781 0.671875 -6.125 C 0.585938 -6.207031 0.546875 -6.332031 0.546875 -6.5 L 0.546875 -6.953125 C 0.546875 -7.117188 0.585938 -7.238281 0.671875 -7.3125 C 0.765625 -7.382812 0.890625 -7.421875 1.046875 -7.421875 L 5.671875 -7.421875 C 5.847656 -7.421875 5.992188 -7.363281 6.109375 -7.25 C 6.234375 -7.132812 6.296875 -6.984375 6.296875 -6.796875 L 6.296875 -5.5 C 6.296875 -5.34375 6.253906 -5.21875 6.171875 -5.125 C 6.097656 -5.039062 5.984375 -5 5.828125 -5 L 5.359375 -5 C 5.046875 -5 4.890625 -5.164062 4.890625 -5.5 L 4.890625 -6.015625 L 2.90625 -6.015625 L 2.90625 -4.546875 L 4.453125 -4.546875 C 4.597656 -4.546875 4.71875 -4.492188 4.8125 -4.390625 C 4.914062 -4.296875 4.96875 -4.171875 4.96875 -4.015625 L 4.96875 -3.65625 C 4.96875 -3.507812 4.914062 -3.382812 4.8125 -3.28125 C 4.71875 -3.1875 4.597656 -3.140625 4.453125 -3.140625 L 2.90625 -3.140625 L 2.90625 -1.40625 L 4.9375 -1.40625 L 4.9375 -2.09375 C 4.9375 -2.25 4.972656 -2.367188 5.046875 -2.453125 C 5.128906 -2.546875 5.253906 -2.59375 5.421875 -2.59375 Z M 5.890625 -2.59375 "/></g></g></g><g fill="#313131" fill-opacity="1"><g transform="translate(80.035984, 24.006306)"><g><path d="M 5.703125 -2.59375 C 5.867188 -2.59375 5.988281 -2.546875 6.0625 -2.453125 C 6.132812 -2.367188 6.171875 -2.25 6.171875 -2.09375 L 6.171875 -0.609375 C 6.171875 -0.429688 6.113281 -0.285156 6 -0.171875 C 5.882812 -0.0546875 5.734375 0 5.546875 0 L 1.046875 0 C 0.890625 0 0.765625 -0.0351562 0.671875 -0.109375 C 0.585938 -0.179688 0.546875 -0.300781 0.546875 -0.46875 L 0.546875 -0.9375 C 0.546875 -1.09375 0.585938 -1.207031 0.671875 -1.28125 C 0.765625 -1.363281 0.890625 -1.40625 1.046875 -1.40625 L 1.203125 -1.40625 L 1.203125 -6.015625 L 1.046875 -6.015625 C 0.890625 -6.015625 0.765625 -6.050781 0.671875 -6.125 C 0.585938 -6.207031 0.546875 -6.332031 0.546875 -6.5 L 0.546875 -6.953125 C 0.546875 -7.117188 0.585938 -7.238281 0.671875 -7.3125 C 0.765625 -7.382812 0.890625 -7.421875 1.046875 -7.421875 L 3.484375 -7.421875 C 3.640625 -7.421875 3.757812 -7.382812 3.84375 -7.3125 C 3.9375 -7.238281 3.984375 -7.117188 3.984375 -6.953125 L 3.984375 -6.5 C 3.984375 -6.332031 3.9375 -6.207031 3.84375 -6.125 C 3.757812 -6.050781 3.640625 -6.015625 3.484375 -6.015625 L 2.90625 -6.015625 L 2.90625 -1.40625 L 4.78125 -1.40625 L 4.78125 -2.09375 C 4.78125 -2.425781 4.929688 -2.59375 5.234375 -2.59375 Z M 5.703125 -2.59375 "/></g></g></g></g></g></svg>